<svg fill="#FFFFFF" xmlns="http://www.w3.org/2000/svg" xmlns:xlink="http://www.w3.org/1999/xlink" version="1.1" x="0px" y="0px" viewBox="0 0 64 64" enable-background="new 0 0 64 64" xml:space="preserve"><g><g><path d="M40.828,38.079c-1.537-0.969-3.717-0.749-5.03,0.566c-1.582,1.582-1.582,4.156,0,5.738l4.323,4.323    C40.316,48.902,40.572,49,40.828,49s0.512-0.098,0.707-0.293l4.324-4.323c1.581-1.582,1.581-4.156,0-5.738    C44.543,37.329,42.361,37.111,40.828,38.079z M44.445,42.97l-3.617,3.616l-3.616-3.616c-0.802-0.803-0.802-2.107,0-2.91    c0.389-0.389,0.905-0.603,1.454-0.603c0.55,0,1.066,0.215,1.455,0.603c0.391,0.391,1.023,0.391,1.414,0    c0.777-0.777,2.133-0.775,2.91,0C45.247,40.861,45.247,42.168,44.445,42.97z"></path><path d="M32,25c4.963,0,9-4.038,9-9s-4.037-9-9-9c-4.962,0-9,4.038-9,9S27.038,25,32,25z M32,9c3.859,0,7,3.14,7,7s-3.141,7-7,7    c-3.86,0-7-3.14-7-7S28.14,9,32,9z"></path><path d="M48,29H16c-2.757,0-5,2.243-5,5v22c0,0.553,0.448,1,1,1h40c0.553,0,1-0.447,1-1V34C53,31.243,50.757,29,48,29z M51,55h-6    v-3c0-0.553-0.447-1-1-1s-1,0.447-1,1v3H21V42c0-0.553-0.448-1-1-1s-1,0.447-1,1v13h-6V34c0-1.654,1.346-3,3-3h32    c1.654,0,3,1.346,3,3V55z"></path></g></g></svg>