<?xml version="1.0" encoding="utf-8"?>
<!-- Generator: Adobe Illustrator 21.1.0, SVG Export Plug-In . SVG Version: 6.00 Build 0)  -->
<svg version="1.1" id="Layer_1" xmlns="http://www.w3.org/2000/svg" xmlns:xlink="http://www.w3.org/1999/xlink" x="0px" y="0px"
	 viewBox="0 0 60 60" style="enable-background:new 0 0 60 60;" xml:space="preserve">
<style type="text/css">
	.st0{fill:#FFFFFF;}
</style>
<title>Robots - Outline - 068 - Bot</title>
<g>
	<path class="st0" d="M53.4,8.2c-0.4,0-0.8,0.4-0.8,0.8v2.4h-1.7c-0.3-1-1-1.8-1.9-2.2c-0.1,0-0.2-0.1-0.4-0.1V7.4H51
		c0.4,0,0.8-0.4,0.8-0.8S51.5,5.8,51,5.8h-2.4c-0.9,0-1.6,0.7-1.6,1.6v1.7c-1.4,0.4-2.4,1.7-2.4,3.1c0,0.7,0.3,1.5,0.7,2
		c-0.4,2.1-2.2,3.6-4.3,3.6c-0.1,0-0.3,0-0.4,0v-1.6c0-5.8-4.7-10.5-10.5-10.5s-10.5,4.7-10.5,10.5v3.2h-0.4c-4.8,0-8.8,3.6-9.3,8.4
		c-0.3,0.4-0.6,0.8-0.7,1.3H7.4c-0.9,0-1.6,0.7-1.6,1.6v2.4c0,0.4,0.4,0.8,0.8,0.8c0.4,0,0.8-0.4,0.8-0.8v-2.4h1.7
		c0.3,1,1,1.8,1.9,2.2c0.1,0,0.2,0.1,0.4,0.1v1.7H9c-0.4,0-0.8,0.4-0.8,0.8c0,0.4,0.4,0.8,0.8,0.8h2.4c0.9,0,1.6-0.7,1.6-1.6v-1.7
		c1.4-0.4,2.4-1.7,2.4-3.1c0-0.7-0.3-1.5-0.7-2c0.4-2.1,2.2-3.6,4.3-3.6c0.1,0,0.3,0,0.4,0v16.2c-3.8,0.1-6.8,3.3-6.7,7.1
		c0.1,3.8,3.3,6.8,7.1,6.7h20.2c3.8,0.1,7-2.9,7.1-6.7c0.1-3.8-2.9-7-6.7-7.1V22.7h0.4c4.8,0,8.8-3.6,9.3-8.4
		c0.3-0.4,0.6-0.8,0.7-1.3h1.7c0.9,0,1.6-0.7,1.6-1.6V9C54.2,8.5,53.9,8.2,53.4,8.2z M46.3,11.5c0.3-0.5,0.8-0.9,1.4-0.9l0,0
		c0.2,0,0.4,0,0.6,0.1c0.8,0.3,1.2,1.3,0.9,2.1c-0.1,0.2-0.2,0.4-0.4,0.6c-0.2,0.2-0.5,0.3-0.7,0.4l0,0c-0.2,0-0.4,0-0.6,0
		c-0.3-0.1-0.6-0.2-0.8-0.4l-0.1,0C46.1,12.9,46,12.1,46.3,11.5L46.3,11.5z M21.1,16.3c0-4.9,4-8.9,8.9-8.9s8.9,4,8.9,8.9v24.2h-8.1
		v-3.3c2.2-0.4,3.6-2.6,3.2-4.8c-0.3-1.6-1.6-2.8-3.2-3.2v-1.8c2.2-0.4,3.6-2.6,3.2-4.8c-0.3-1.6-1.6-2.8-3.2-3.2v-3.3
		c0-0.4-0.4-0.8-0.8-0.8s-0.8,0.4-0.8,0.8v3.3C27,20,25.6,22.2,26,24.3c0.3,1.6,1.6,2.8,3.2,3.2v1.8C27,29.7,25.6,31.8,26,34
		c0.3,1.6,1.6,2.8,3.2,3.2v3.3h-8.1V16.3z M30,21.1c1.3,0,2.4,1.1,2.4,2.4S31.3,26,30,26s-2.4-1.1-2.4-2.4S28.7,21.1,30,21.1z
		 M30,30.8c1.3,0,2.4,1.1,2.4,2.4s-1.1,2.4-2.4,2.4s-2.4-1.1-2.4-2.4S28.7,30.8,30,30.8z M13.7,30.7c-0.3,0.5-0.8,0.9-1.4,0.9l0,0
		c-0.2,0-0.4,0-0.6-0.1c-0.8-0.3-1.2-1.3-0.9-2.1c0.1-0.2,0.2-0.4,0.4-0.6c0.2-0.2,0.4-0.3,0.7-0.4l0,0c0.2,0,0.4,0,0.6,0
		c0.3,0.1,0.6,0.2,0.8,0.4l0.1,0C13.9,29.3,14,30.1,13.7,30.7L13.7,30.7z M19.1,22.7c-2.6,0-5,1.7-5.8,4.2l0,0
		c-0.1,0-0.3-0.1-0.4-0.1l0,0c-0.2,0-0.4-0.1-0.6-0.1l0,0c-0.2,0-0.4,0-0.5,0l0,0c0.9-3.3,3.9-5.7,7.4-5.7h0.4v1.6H19.1z M45.3,47.4
		c0,2.9-2.4,5.2-5.3,5.3H19.9c-2.9,0-5.3-2.4-5.3-5.3s2.4-5.3,5.3-5.3h20.2C43,42.1,45.3,44.5,45.3,47.4z M40.9,21.1h-0.4v-1.6
		c2.8,0.2,5.4-1.5,6.2-4.2l0,0c0.1,0,0.3,0.1,0.4,0.1l0,0h0.2l0,0c0.2,0,0.3,0.1,0.5,0.1c0.1,0,0.2,0,0.4,0h0.2l0,0
		C47.4,18.8,44.4,21.1,40.9,21.1z"/>
	<path class="st0" d="M19.9,43.7c-0.2,0-0.5,0-0.7,0.1c-0.1,0-0.2,0.1-0.3,0.1c-0.1,0-0.3,0.1-0.4,0.1c-0.2,0.1-0.3,0.1-0.4,0.2
		l-0.2,0.1c-0.4,0.3-0.7,0.6-1,1c0,0.1-0.1,0.1-0.1,0.2c-0.2,0.2-0.3,0.5-0.4,0.8c0,0.1-0.1,0.2-0.1,0.3c-0.4,2,0.8,3.9,2.8,4.3
		c0.3,0.1,0.5,0.1,0.8,0.1h20.2c0.2,0,0.5,0,0.7-0.1c0.1,0,0.2-0.1,0.3-0.1c0.3-0.1,0.6-0.2,0.8-0.4l0.2-0.1c0.4-0.3,0.8-0.6,1-1
		c0-0.1,0.1-0.1,0.1-0.2c0.2-0.2,0.3-0.5,0.4-0.8c0-0.1,0.1-0.2,0.1-0.3c0.4-2-0.8-3.9-2.8-4.3c-0.3-0.1-0.5-0.1-0.8-0.1H19.9z
		 M37.1,45.4c-0.8,1.2-0.8,2.8,0,4H22.9c0.8-1.2,0.8-2.8,0-4H37.1z M17.9,47.4c0-0.1,0-0.3,0-0.4c0-0.1,0-0.2,0.1-0.2
		c0,0,0-0.1,0-0.1c0.2-0.5,0.6-0.9,1.1-1.1h0.1c0.1-0.1,0.2-0.1,0.3-0.2c1.1-0.2,2.2,0.5,2.4,1.6c0.2,1.1-0.5,2.2-1.6,2.4
		c-1.1,0.2-2.2-0.5-2.4-1.6C17.9,47.6,17.9,47.5,17.9,47.4L17.9,47.4z M42.1,47.4c0,0.1,0,0.3,0,0.4c0,0.1,0,0.2-0.1,0.2
		c0,0,0,0.1,0,0.1c-0.2,0.5-0.6,0.9-1.1,1.1h-0.1c-0.1,0.1-0.2,0.1-0.3,0.2c-1.1,0.2-2.2-0.5-2.4-1.6s0.5-2.2,1.6-2.4
		s2.2,0.5,2.4,1.6C42.1,47.1,42.1,47.3,42.1,47.4L42.1,47.4z"/>
</g>
</svg>
