<svg fill="#FFFFFF" xmlns="http://www.w3.org/2000/svg" xmlns:xlink="http://www.w3.org/1999/xlink" version="1.1" x="0px" y="0px" viewBox="206 206 100 100" enable-background="new 206 206 100 100" xml:space="preserve"><g><path fill="#FFFFFF" d="M297.154,267.246c-1.581-2.634-5.061-2.136-6.889-1.42l-13.96,4.839c0.005-0.095,0.008-0.189,0.008-0.286   c0-2.959-2.408-5.367-5.367-5.367c-0.003,0-0.005,0.001-0.008,0.001H258.94c-8.711-8.334-21.788-7.869-26.103-7.45   c-0.083-1.689-1.479-3.038-3.188-3.038h-13.151c-0.564,0-1.055,0.384-1.192,0.931c-3.982,15.93,4.927,28.854,5.308,29.396   c0.23,0.327,0.605,0.522,1.005,0.522h7.825c1.356,0,2.147-0.547,2.571-1.006c0.827-0.895,0.842-2.037,0.829-2.344v-1.201   c4.814,1.64,18.808,6.363,23.952,7.666c1.201,0.305,2.426,0.43,3.628,0.43c5.32,0,10.18-2.449,10.441-2.583   c2.277-1.21,22.275-11.839,23.19-12.421l0.089-0.057C298.323,271.212,298.086,268.802,297.154,267.246z M217.473,256.981h7.26   v25.934h-2.447C220.756,280.465,214.705,269.709,217.473,256.981z M230.21,282.699c-0.165,0.179-0.508,0.216-0.766,0.216h-2.253   v-25.934h2.458c0.407,0,0.737,0.331,0.737,0.738v1.229v20.156v2.95c0,0.032,0.001,0.064,0.004,0.097   C230.39,282.154,230.387,282.508,230.21,282.699z M292.829,271.782l-0.093,0.059c-0.716,0.447-14.161,7.615-23.008,12.315   c-0.066,0.034-6.697,3.378-12.328,1.95c-5.305-1.343-20.792-6.596-24.556-7.88v-18.188c3.732-0.368,16.683-0.973,24.725,7.071   c0.23,0.231,0.543,0.36,0.869,0.36h12.507c0.002,0,0.003,0,0.005,0c1.602,0.003,2.904,1.306,2.904,2.908   c0,1.604-1.306,2.909-2.909,2.909H252.1c-0.679,0-1.229,0.55-1.229,1.229c0,0.68,0.55,1.229,1.229,1.229h18.846   c1.728,0,3.267-0.822,4.249-2.094l15.899-5.512c0.017-0.006,0.034-0.013,0.05-0.019c0.03-0.012,3.004-1.106,3.901,0.389   C295.394,269.092,295.543,270.062,292.829,271.782z"></path><path fill="#FFFFFF" d="M255.672,236.191c0.679,0,1.229-0.55,1.229-1.229c0-5.196,4.227-9.423,9.423-9.423   c5.195,0,9.423,4.227,9.423,9.423c0,5.196-4.228,9.423-9.423,9.423c-0.679,0-1.229,0.551-1.229,1.229v7.538   c0,0.679,0.551,1.229,1.229,1.229s1.229-0.55,1.229-1.229v-6.372c5.976-0.617,10.65-5.682,10.65-11.818   c0-6.551-5.329-11.881-11.88-11.881s-11.881,5.33-11.881,11.881C254.443,235.64,254.992,236.191,255.672,236.191z"></path><circle fill="#FFFFFF" cx="266.323" cy="257.74" r="1.557"></circle></g></svg>